<?xml version="1.0" encoding="iso-8859-1"?>
<!-- Uploaded to: SVG Repo, www.svgrepo.com, Generator: SVG Repo Mixer Tools -->
<svg height="800px" width="800px" version="1.1" id="Layer_1" xmlns="http://www.w3.org/2000/svg" xmlns:xlink="http://www.w3.org/1999/xlink" 
	 viewBox="0 0 512 512" xml:space="preserve">
<g>
	<path style="fill:#FEDEA1;" d="M394.47,109.559c-3.354-10.334,2.876-31.121,21.043-49.28c11.878-11.87,26.052-19.789,38.153-21.521
		l19.089,8.448c3.354,10.334-2.876,31.121-21.043,49.28c-11.981,11.981-26.3,19.934-38.468,21.572L394.47,109.559z"/>
	<path style="fill:#FEDEA1;" d="M39.245,464.794c-3.354-10.334,2.876-31.121,21.043-49.28c11.972-11.981,26.3-19.934,38.468-21.572
		l18.773,8.491c3.354,10.334-2.876,31.121-21.043,49.28c-11.878,11.87-26.052,19.789-38.153,21.521L39.245,464.794z"/>
</g>
<path style="fill:#BCB0AD;" d="M318.805,223.241l-1.835-28.211l-0.589,0.589l-0.802-6.238
	c-12.433-96.597-46.66-166.537-48.111-169.463l-22.938-0.009C242.389,24.226,192,127.232,192,256c0,9.805,0.375,20.215,1.195,32.759
	l1.835,28.211l0.589-0.589l0.802,6.238c12.433,96.597,46.66,166.537,48.111,169.463l22.938,0.009
	C269.611,487.774,320,384.768,320,256C320,246.195,319.625,235.785,318.805,223.241z"/>
<path style="fill:#573A32;" d="M53.504,486.4c15.821,0,35.55-9.139,52.036-25.634c19.678-19.678,28.672-43.827,24.38-60.587
	l56.61-56.61c14.31,88.166,44.86,150.818,46.541,154.206C237.397,506.487,246.272,512,256,512s18.603-5.513,22.929-14.217
	C281.131,493.346,332.8,387.738,332.8,256c0-19.209-1.195-37.76-3.072-55.62l70.588-70.588c2.697,0.683,5.393,1.374,8.422,1.374
	c15.821,0,35.55-9.139,52.036-25.634c24.994-24.994,33.101-57.412,18.099-72.405c-5.103-5.094-12.22-7.526-20.378-7.526
	c-15.821,0-35.55,9.139-52.036,25.634c-19.678,19.678-28.672,43.827-24.38,60.587l-56.61,56.61
	c-14.31-88.166-44.86-150.827-46.541-154.214C274.603,5.504,265.728,0,256,0s-18.603,5.504-22.929,14.217
	C230.869,18.654,179.2,124.262,179.2,256c0,19.209,1.195,37.76,3.072,55.62l-70.588,70.588c-2.697-0.683-5.393-1.374-8.422-1.374
	c-15.821,0-35.55,9.139-52.036,25.626c-24.994,24.994-33.101,57.412-18.099,72.405C38.229,483.968,45.346,486.4,53.504,486.4z
	 M424.568,69.333C437.094,56.806,450.637,51.2,458.496,51.2c0.708,0,1.271,0.051,1.638,0.051c0.239,0,0.393-0.017,0.444-0.094
	c1.348,4.156-1.886,20.25-17.92,36.275c-12.527,12.527-26.069,18.133-33.937,18.133c-0.708,0-1.271-0.051-1.638-0.051
	c-0.239,0-0.393,0.026-0.444,0.094C405.299,101.453,408.533,85.359,424.568,69.333z M307.2,256c0,127.249-51.2,230.4-51.2,230.4
	s-34.577-69.845-46.882-165.419l96.913-96.913C306.714,234.53,307.2,245.137,307.2,256z M256,25.6c0,0,34.577,69.845,46.882,165.419
	l-96.913,96.913C205.286,277.47,204.8,266.863,204.8,256C204.8,128.751,256,25.6,256,25.6z M69.333,424.568
	c12.527-12.527,26.069-18.133,33.937-18.133c0.708,0,1.271,0.051,1.638,0.051c0.239,0,0.393-0.017,0.444-0.094
	c1.348,4.156-1.886,20.25-17.92,36.275C74.906,455.194,61.363,460.8,53.504,460.8c-0.708,0-1.271-0.051-1.638-0.051
	c-0.239,0-0.393,0.026-0.444,0.094C50.065,456.687,53.299,440.593,69.333,424.568z"/>
</svg>