<?xml version="1.0" encoding="iso-8859-1"?>
<!-- Uploaded to: SVG Repo, www.svgrepo.com, Generator: SVG Repo Mixer Tools -->
<svg height="800px" width="800px" version="1.1" id="Layer_1" xmlns="http://www.w3.org/2000/svg" xmlns:xlink="http://www.w3.org/1999/xlink" 
	 viewBox="0 0 512 512" xml:space="preserve">
<circle style="fill:#A9D0D3;" cx="256" cy="256" r="243.2"/>
<polygon style="fill:#FF877F;" points="211.234,229.342 350.404,118.007 369.852,133.726 285.107,303.206 "/>
<g>
	<path style="fill:#573A32;" d="M256,512c141.389,0,256-114.62,256-256S397.389,0,256,0C114.62,0,0,114.62,0,256S114.62,512,256,512
		z M243.2,26.249V51.2c0,7.074,5.726,12.8,12.8,12.8c7.074,0,12.8-5.726,12.8-12.8V26.249
		C385.613,32.717,479.283,126.387,485.751,243.2H460.8c-7.074,0-12.8,5.726-12.8,12.8c0,7.074,5.726,12.8,12.8,12.8h24.951
		C479.283,385.613,385.613,479.292,268.8,485.751V460.8c0-7.074-5.726-12.8-12.8-12.8c-7.074,0-12.8,5.726-12.8,12.8v24.951
		C126.387,479.292,32.717,385.613,26.249,268.8H51.2c7.074,0,12.8-5.726,12.8-12.8c0-7.074-5.726-12.8-12.8-12.8H26.249
		C32.717,126.387,126.387,32.717,243.2,26.249z"/>
	<path style="fill:#573A32;" d="M137.506,403.908c4.693,3.797,10.394,5.692,16.094,5.692c5.658,0,11.315-1.869,15.991-5.606
		l128-102.4c2.893-2.313,5.248-5.231,6.903-8.542l76.8-153.6c5.376-10.752,2.543-23.799-6.801-31.36
		c-4.693-3.797-10.394-5.692-16.094-5.692c-5.658,0-11.315,1.869-15.991,5.606l-128,102.4c-2.893,2.313-5.248,5.231-6.903,8.542
		l-76.8,153.6C125.329,383.3,128.154,396.348,137.506,403.908z M358.4,128l-76.8,153.6l-51.2-51.2L358.4,128z"/>
</g>
</svg>