<?xml version="1.0" encoding="iso-8859-1"?>
<!-- Uploaded to: SVG Repo, www.svgrepo.com, Generator: SVG Repo Mixer Tools -->
<svg height="800px" width="800px" version="1.1" id="Layer_1" xmlns="http://www.w3.org/2000/svg" xmlns:xlink="http://www.w3.org/1999/xlink" 
	 viewBox="0 0 512 512" xml:space="preserve">
<g>
	<polygon style="fill:#FFF8EC;" points="29.764,371.2 219.136,19.541 243.2,25.6 243.2,371.2 	"/>
	<polygon style="fill:#FFF8EC;" points="294.4,371.2 294.4,102.4 319.087,97.647 428.51,371.2 	"/>
</g>
<polygon style="fill:#A9D0D3;" points="98.526,499.2 8.533,422.4 504.533,422.4 413.474,499.2 "/>
<g>
	<path style="fill:#573A32;" d="M409.6,384c8.491,0,16.435-4.215,21.197-11.247c4.762-7.031,5.726-15.974,2.569-23.859l-102.4-256
		c-3.942-9.856-13.457-16.094-23.757-16.094c-1.604,0-3.226,0.154-4.855,0.461C290.313,79.582,281.6,90.129,281.6,102.4v256
		c0,14.14,11.46,25.6,25.6,25.6H409.6z M307.2,102.4l102.4,256H307.2V102.4z"/>
	<path style="fill:#573A32;" d="M51.2,384h179.2c14.14,0,25.6-11.46,25.6-25.6V25.6c0-11.725-7.97-21.956-19.337-24.823
		C234.573,0.256,232.474,0,230.4,0c-9.25,0-17.997,5.035-22.537,13.466l-179.2,332.8c-4.275,7.936-4.053,17.527,0.563,25.267
		C33.843,379.264,42.189,384,51.2,384z M230.4,25.6v332.8H51.2L230.4,25.6z"/>
	<path style="fill:#573A32;" d="M423.799,507.699l76.8-51.2c9.387-6.255,13.568-17.92,10.3-28.715
		c-3.268-10.803-13.218-18.184-24.499-18.184H25.6c-11.281,0-21.231,7.381-24.499,18.185c-3.268,10.795,0.913,22.46,10.3,28.715
		l76.8,51.2C92.407,510.507,97.348,512,102.4,512h307.2C414.652,512,419.593,510.507,423.799,507.699z M25.6,435.2h460.8l-76.8,51.2
		H102.4L25.6,435.2z"/>
</g>
</svg>