<?xml version="1.0" encoding="iso-8859-1"?>
<!-- Uploaded to: SVG Repo, www.svgrepo.com, Generator: SVG Repo Mixer Tools -->
<svg height="800px" width="800px" version="1.1" id="Layer_1" xmlns="http://www.w3.org/2000/svg" xmlns:xlink="http://www.w3.org/1999/xlink" 
	 viewBox="0 0 512 512" xml:space="preserve">
<polygon style="fill:#FF877F;" points="153.6,320 153.6,217.6 402.099,217.6 453.299,268.8 402.099,320 "/>
<polygon style="fill:#FEDEA1;" points="109.901,166.4 58.701,115.2 109.901,64 358.4,64 358.4,166.4 "/>
<path style="fill:#573A32;" d="M281.6,512V332.8h115.2c6.793,0,13.303-2.697,18.099-7.501l38.4-38.4
	c10.001-10.001,10.001-26.206,0-36.207l-38.4-38.4c-4.796-4.796-11.307-7.492-18.099-7.492H281.6v-25.6h64
	c14.14,0,25.6-11.46,25.6-25.6V76.8c0-14.14-11.46-25.6-25.6-25.6h-64V0H256v51.2H115.2c-6.793,0-13.303,2.697-18.099,7.501
	l-38.4,38.4c-10.001,10.001-10.001,26.206,0,36.207l38.4,38.4c4.796,4.796,11.307,7.492,18.099,7.492H256v25.6h-89.6
	c-14.14,0-25.6,11.46-25.6,25.6v76.8c0,14.14,11.46,25.6,25.6,25.6H256V512H281.6z M115.2,153.6l-38.4-38.4l38.4-38.4h230.4v76.8
	H115.2z M166.4,307.2v-76.8h230.4l38.4,38.4l-38.4,38.4H166.4z"/>
</svg>