<?xml version="1.0" encoding="iso-8859-1"?>
<!-- Uploaded to: SVG Repo, www.svgrepo.com, Generator: SVG Repo Mixer Tools -->
<svg height="800px" width="800px" version="1.1" id="Layer_1" xmlns="http://www.w3.org/2000/svg" xmlns:xlink="http://www.w3.org/1999/xlink" 
	 viewBox="0 0 512 512" xml:space="preserve">
<path style="fill:#50603E;" d="M128.845,473.6l11.537-19.354c21.606-36.258,74.897-138.564,102.997-305.135h25.242
	c28.1,166.571,81.391,268.877,102.997,305.135l11.537,19.354H128.845z"/>
<g>
	<path style="fill:#A0BF7C;" d="M12.8,473.6V325.581l6.187-3.738c1.118-0.683,113.382-69.982,209.485-245.871l23.945,7.62
		C225.613,313.924,147.328,444.032,131.9,467.78l-3.78,5.82H12.8z"/>
	<path style="fill:#A0BF7C;" d="M383.881,473.6l-3.78-5.828c-15.428-23.748-93.713-153.856-120.516-384.188l23.945-7.62
		c96.111,175.889,208.367,245.188,209.485,245.871l6.178,3.738L499.2,473.6H383.881z"/>
</g>
<path style="fill:#573A32;" d="M499.575,310.852c-1.169-0.708-123.324-76.39-220.672-271.095C274.56,31.078,265.694,25.6,256,25.6
	c-9.694,0-18.56,5.478-22.895,14.148C135.748,234.462,13.602,310.135,12.373,310.878C4.727,315.52,0,323.857,0,332.8v128
	c0,14.14,11.46,25.6,25.6,25.6h460.8c14.14,0,25.6-11.46,25.6-25.6v-128C512,323.806,507.281,315.477,499.575,310.852z M25.6,460.8
	v-128c0,0,114.927-69.171,214.11-250.701C213.47,307.593,137.967,434.944,121.173,460.8H25.6z M151.373,460.8
	c24.329-40.815,76.57-143.249,104.627-309.547c28.058,166.298,80.299,268.732,104.627,309.547H151.373z M486.4,460.8h-95.573
	C374.033,434.944,298.53,307.593,272.29,82.099C371.473,263.629,486.4,332.8,486.4,332.8V460.8z"/>
</svg>